<svg width="17" height="17" xmlns="http://www.w3.org/2000/svg" xmlns:xlink="http://www.w3.org/1999/xlink" xmlns:svgjs="http://svgjs.com/svgjs" viewBox="0 0.003 17 16.995" fill="#2b2b2b"><svg xmlns="http://www.w3.org/2000/svg" width="17" height="17" viewBox="0.891 0.883 15.135 15.13"><path paint-order="stroke fill markers" fill-rule="evenodd" d="M10.956 8.448l4.682-4.68a1.323 1.323 0 0 0 0-1.873l-.624-.623a1.324 1.324 0 0 0-1.873 0L8.46 5.952 3.777 1.271a1.324 1.324 0 0 0-1.873 0l-.625.624a1.323 1.323 0 0 0 0 1.872l4.683 4.681L1.28 13.13a1.323 1.323 0 0 0 0 1.872l.624.624a1.324 1.324 0 0 0 1.873 0l4.682-4.68 4.682 4.68a1.324 1.324 0 0 0 1.873 0l.624-.624a1.323 1.323 0 0 0 0-1.872l-4.682-4.68z"/></svg></svg>