<svg width="15" height="13" xmlns="http://www.w3.org/2000/svg" xmlns:xlink="http://www.w3.org/1999/xlink" xmlns:svgjs="http://svgjs.com/svgjs" viewBox="0 0.752 15 11.497" fill="#5cba0e"><svg xmlns="http://www.w3.org/2000/svg" width="15" height="13" viewBox="0 1 15 11.497"><path paint-order="stroke fill markers" fill-rule="evenodd" d="M15 3.254a.9.9 0 0 1-.277.66l-8.324 8.323a.93.93 0 0 1-.659.26.93.93 0 0 1-.659-.26L.261 7.416A.93.93 0 0 1 0 6.757a.93.93 0 0 1 .26-.659L1.577 4.78a.9.9 0 0 1 .66-.277.9.9 0 0 1 .658.277L5.74 7.641l6.347-6.364A.9.9 0 0 1 12.746 1a.9.9 0 0 1 .659.277l1.318 1.318a.864.864 0 0 1 .277.66z"/></svg></svg>