<svg width="16" height="16" xmlns="http://www.w3.org/2000/svg" xmlns:xlink="http://www.w3.org/1999/xlink" xmlns:svgjs="http://svgjs.com/svgjs" viewBox="0.451 0 15.099 16"><svg xmlns="http://www.w3.org/2000/svg" width="16" height="16" viewBox="0 0.059 15 15.896"><path paint-order="stroke fill markers" fill-rule="evenodd" d="M13.682 4.24l-.477.478a6.816 6.816 0 0 1 1.59 5.103c-.318 3.227-2.941 5.819-6.153 6.105a6.84 6.84 0 0 1-7.44-6.09H.534a.529.529 0 0 1-.46-.794l1.494-2.607a.536.536 0 0 1 .922 0l1.494 2.607a.527.527 0 0 1-.445.795h-.588a5.091 5.091 0 0 0 5.803 4.324c2.162-.302 3.895-2.003 4.26-4.15a5.104 5.104 0 0 0-7.838-5.134c-.381.254-.922.206-1.208-.16a.88.88 0 0 1 .207-1.255 6.707 6.707 0 0 1 2.973-1.113v-.986h-.7a.427.427 0 0 1-.429-.43V.49c0-.239.19-.43.43-.43h3.227c.238 0 .429.191.429.43v.445c0 .238-.19.43-.43.43h-.762v1a6.687 6.687 0 0 1 3.592 1.638l.43-.445-.318-.302a.432.432 0 0 1-.016-.62l.334-.366a.448.448 0 0 1 .62-.031l1.303 1.208c.175.175.191.445.032.62l-.35.365a.447.447 0 0 1-.62.032l-.238-.222zM8.944 8.216a1.372 1.372 0 0 0-2.13.223c-.318.445-.302 1.065 0 1.51a1.366 1.366 0 0 0 1.59.54l1.733 1.416c.334.27.779-.16.508-.493L9.246 9.66c.175-.492.08-1.048-.302-1.446z"/></svg></svg>